<svg width="64" height="69" viewBox="0 0 64 69" fill="none" xmlns="http://www.w3.org/2000/svg">
    <g filter="url(#filter0_d_0_1)">
        <path d="M6.63896 13.2791L29.0976 1.24811C30.5553 0.467233 32.3048 0.457594 33.771 1.22236L56.9086 13.2909C58.5604 14.1525 59.5962 15.861 59.5962 17.7241V41.9334C59.5962 43.7253 58.6373 45.3802 57.0827 46.2713L33.9474 59.5321C32.3894 60.4252 30.4721 60.4141 28.9245 59.5031L6.46349 46.2808C4.93709 45.3822 4 43.7432 4 41.972V17.6865C4 15.8433 5.01415 14.1495 6.63896 13.2791Z" fill="#716EA6"/>
    </g>
    <rect x="37" y="35" width="6" height="6" rx="1" stroke="white" stroke-width="2"/>
    <rect x="37" y="20" width="6" height="6" rx="1" stroke="white" stroke-width="2"/>
    <rect x="21" y="35" width="6" height="6" rx="1" stroke="white" stroke-width="2"/>
    <rect x="21" y="20" width="6" height="6" rx="1" stroke="white" stroke-width="2"/>
    <path d="M32 19L32 42" stroke="white" stroke-width="2" stroke-linecap="round"/>
    <path d="M44 30L20 30" stroke="white" stroke-width="2" stroke-linecap="round"/>
    <defs>
        <filter id="filter0_d_0_1" x="0" y="0.655518" width="63.5962" height="67.5387" filterUnits="userSpaceOnUse" color-interpolation-filters="sRGB">
            <feFlood flood-opacity="0" result="BackgroundImageFix"/>
            <feColorMatrix in="SourceAlpha" type="matrix" values="0 0 0 0 0 0 0 0 0 0 0 0 0 0 0 0 0 0 127 0" result="hardAlpha"/>
            <feOffset dy="4"/>
            <feGaussianBlur stdDeviation="2"/>
            <feComposite in2="hardAlpha" operator="out"/>
            <feColorMatrix type="matrix" values="0 0 0 0 0 0 0 0 0 0 0 0 0 0 0 0 0 0 0.25 0"/>
            <feBlend mode="normal" in2="BackgroundImageFix" result="effect1_dropShadow_0_1"/>
            <feBlend mode="normal" in="SourceGraphic" in2="effect1_dropShadow_0_1" result="shape"/>
        </filter>
    </defs>
</svg>
