<svg fill="#19478d" version="1.1" id="Capa_1" xmlns="http://www.w3.org/2000/svg" xmlns:xlink="http://www.w3.org/1999/xlink"
    width="800px" height="800px" viewBox="0 0 80 80" xml:space="preserve">
<g>
	<g>
		<rect x="44.227" y="56.889" width="6.074" height="3.842"/>
        <circle cx="39.191" cy="50.009" r="1.175"/>
        <path d="M40,80c22.091,0,40-17.909,40-40C80,17.908,62.091,0,40,0C17.908,0,0,17.908,0,40C0,62.091,17.908,80,40,80z
			 M52.301,61.729c0,0.554-0.447,1-1,1h-8.074h-7.985c-0.03,0.004-0.056,0.019-0.087,0.019h-8.072c-0.553,0-1-0.446-1-1v-5.841
			c0-0.553,0.447-1,1-1h7.985c0.03-0.003,0.056-0.018,0.087-0.018h8.072h8.074c0.553,0,1,0.446,1,1V61.729z M49.453,39.048
			c0.553,0,1,0.447,1,1c0,0.554-0.447,1-1,1H27.468c-0.553,0-1-0.446-1-1V24.132c0-0.553,0.447-1,1-1c0.553,0,1,0.447,1,1v14.916
			H49.453z M29.732,35.266v-4.78c0-0.553,0.447-1,1-1c0.553,0,1,0.447,1,1v4.779c0,0.553-0.447,1-1,1
			C30.179,36.265,29.732,35.818,29.732,35.266z M33.166,35.266v-7.7c0-0.553,0.447-1,1-1c0.553,0,1,0.447,1,1v7.699
			c0,0.553-0.447,1-1,1C33.613,36.265,33.166,35.818,33.166,35.266z M37.46,35.266v-3.85c0-0.553,0.447-1,1-1c0.553,0,1,0.447,1,1
			v3.85c0,0.553-0.447,1-1,1C37.907,36.266,37.46,35.818,37.46,35.266z M50.439,50.01c0,1.75-1.425,3.176-3.176,3.176
			s-3.176-1.426-3.176-3.176s1.425-3.175,3.176-3.175S50.439,48.26,50.439,50.01z M42.365,50.01c0,1.75-1.424,3.176-3.175,3.176
			s-3.175-1.426-3.175-3.176s1.424-3.175,3.175-3.175S42.365,48.26,42.365,50.01z M34.293,50.026c0,1.751-1.425,3.176-3.176,3.176
			s-3.175-1.425-3.175-3.176c0-1.75,1.424-3.175,3.175-3.175S34.293,48.276,34.293,50.026z M53.936,44.303c0,0.553-0.447,1-1,1
			s-1-0.447-1-1v-9.85l-7.824-3.034c-0.516-0.2-0.771-0.779-0.57-1.294c0.199-0.516,0.781-0.771,1.294-0.571l8.463,3.282
			c0.005,0.002,0.008,0.006,0.013,0.008c0.081,0.033,0.147,0.087,0.217,0.139c0.035,0.027,0.08,0.044,0.11,0.074
			c0.048,0.048,0.076,0.109,0.114,0.165c0.033,0.051,0.076,0.095,0.102,0.15c0.018,0.041,0.018,0.09,0.03,0.135
			c0.022,0.081,0.049,0.162,0.05,0.248c0,0.005,0.004,0.009,0.004,0.014v10.534H53.936z M53.602,28.729
			c0-1.751,1.426-3.175,3.176-3.175c1.752,0,3.176,1.424,3.176,3.175s-1.424,3.176-3.176,3.176
			C55.027,31.905,53.602,30.48,53.602,28.729z M57.49,40.866c0,0.553-0.447,1-1,1s-1-0.447-1-1v-7.098c0-0.553,0.447-1,1-1
			s1,0.447,1,1V40.866z M60.349,33.062l5.552,5.554c0.392,0.391,0.392,1.023,0,1.414l-4.752,4.752
			c-0.195,0.194-0.451,0.293-0.707,0.293c-0.051,0-0.099-0.021-0.147-0.029c-0.177,0.154-0.399,0.257-0.652,0.257
			c-0.553,0-1-0.447-1-1V33.768c0-0.13,0.026-0.26,0.077-0.382c0.102-0.245,0.296-0.439,0.541-0.541c0.244-0.102,0.52-0.102,0.764,0
			C60.146,32.896,60.257,32.97,60.349,33.062z M22.658,20.24h36.295c0.553,0,1,0.447,1,1c0,0.553-0.447,1-1,1H22.658
			c-0.553,0-1-0.447-1-1C21.658,20.687,22.106,20.24,22.658,20.24z"/>
        <polygon points="60.641,36.184 60.641,42.462 63.779,39.323 		"/>
        <circle cx="31.118" cy="50.026" r="1.175"/>
        <rect x="28.082" y="56.906" width="6.072" height="3.841"/>
        <rect x="36.154" y="56.889" width="6.072" height="3.842"/>
        <circle cx="56.777" cy="28.729" r="1.176"/>
        <circle cx="47.264" cy="50.01" r="1.175"/>
	</g>
</g>
</svg>